{
  "accessors": [
    {
      "bufferView": 1,
      "componentType": 5126,
      "count": 5530,
      "max": [
        406.8330078125,
        -0.0,
        311.8280029296875
      ],
      "min": [
        365.8999938964844,
        -98.95700073242188,
        260.97100830078125
      ],
      "type": "VEC3"
    },
    {
      "bufferView": 1,
      "byteOffset": 66360,
      "componentType": 5126,
      "count": 5530,
      "max": [
        1.0,
        1.0,
        0.9999672174453735
      ],
      "min": [
        -1.0,
        -1.0,
        -0.9999668598175049
      ],
      "type": "VEC3"
    },
    {
      "bufferView": 0,
      "componentType": 5125,
      "count": 24783,
      "type": "SCALAR"
    },
    {
      "bufferView": 1,
      "byteOffset": 132720,
      "componentType": 5126,
      "count": 284,
      "max": [
        399.0,
        -64.85700225830078,
        296.3999938964844
      ],
      "min": [
        394.9230041503906,
        -83.28600311279297,
        276.3999938964844
      ],
      "type": "VEC3"
    },
    {
      "bufferView": 1,
      "byteOffset": 136128,
      "componentType": 5126,
      "count": 284,
      "max": [
        1.0,
        1.0,
        0.8985046744346619
      ],
      "min": [
        -1.0,
        -1.0,
        -0.884652853012085
      ],
      "type": "VEC3"
    },
    {
      "bufferView": 0,
      "byteOffset": 99132,
      "componentType": 5125,
      "count": 786,
      "type": "SCALAR"
    },
    {
      "bufferView": 1,
      "byteOffset": 139536,
      "componentType": 5126,
      "count": 12918,
      "max": [
        407.4479064941406,
        -21.85689926147461,
        346.260009765625
      ],
      "min": [
        389.23199462890625,
        -95.52400207519531,
        262.17999267578125
      ],
      "type": "VEC3"
    },
    {
      "bufferView": 1,
      "byteOffset": 294552,
      "componentType": 5126,
      "count": 12918,
      "max": [
        1.0,
        1.0,
        1.0
      ],
      "min": [
        -1.0,
        -1.0,
        -1.0
      ],
      "type": "VEC3"
    },
    {
      "bufferView": 0,
      "byteOffset": 102276,
      "componentType": 5125,
      "count": 39396,
      "type": "SCALAR"
    }
  ],
  "asset": {
    "extras": {
      "author": "Ḍ̸̈ē̵̺m̸͕̓ọ̷͗n̴̬̅B̴̝̆u̶̞̅ṇ̴͌ñ̵̳y̷͚̕B̸̝̌ò̷̟i̷ (https://sketchfab.com/DemonBunnyBoi)",
      "license": "CC-BY-4.0 (http://creativecommons.org/licenses/by/4.0/)",
      "source": "https://sketchfab.com/3d-models/squid-game-soldier-3d-d36935c7af1046b79d18ccc137a68066",
      "title": "Squid Game Soldier 3d"
    },
    "generator": "Sketchfab-12.0.1",
    "version": "2.0"
  },
  "bufferViews": [
    {
      "buffer": 0,
      "byteLength": 259860,
      "name": "floatBufferViews",
      "target": 34963
    },
    {
      "buffer": 0,
      "byteLength": 449568,
      "byteOffset": 259860,
      "byteStride": 12,
      "name": "floatBufferViews",
      "target": 34962
    }
  ],
  "buffers": [
    {
      "byteLength": 709428,
      "uri": "scene.bin"
    }
  ],
  "materials": [
    {
      "doubleSided": true,
      "name": "color_15277457",
      "pbrMetallicRoughness": {
        "baseColorFactor": [
          0.913725,
          0.113725,
          0.568627,
          1.0
        ],
        "metallicFactor": 0.0
      }
    },
    {
      "doubleSided": true,
      "name": "color_16448250",
      "pbrMetallicRoughness": {
        "baseColorFactor": [
          0.980392,
          0.980392,
          0.980392,
          1.0
        ],
        "metallicFactor": 0.0
      }
    },
    {
      "doubleSided": true,
      "name": "color_2829873",
      "pbrMetallicRoughness": {
        "baseColorFactor": [
          0.168627,
          0.180392,
          0.192157,
          1.0
        ],
        "metallicFactor": 0.0
      }
    }
  ],
  "meshes": [
    {
      "name": "Object_0",
      "primitives": [
        {
          "attributes": {
            "NORMAL": 1,
            "POSITION": 0
          },
          "indices": 2,
          "material": 0,
          "mode": 4
        }
      ]
    },
    {
      "name": "Object_1",
      "primitives": [
        {
          "attributes": {
            "NORMAL": 4,
            "POSITION": 3
          },
          "indices": 5,
          "material": 1,
          "mode": 4
        }
      ]
    },
    {
      "name": "Object_2",
      "primitives": [
        {
          "attributes": {
            "NORMAL": 7,
            "POSITION": 6
          },
          "indices": 8,
          "material": 2,
          "mode": 4
        }
      ]
    }
  ],
  "nodes": [
    {
      "children": [
        1
      ],
      "matrix": [
        1.1102230246251565e-16,
        1.6653345369377348e-16,
        1.0,
        0.0,
        1.6653345369377348e-16,
        -1.0,
        2.220446049250313e-16,
        0.0,
        1.0,
        1.110223024625157e-16,
        -1.6653345369377346e-16,
        0.0,
        83.05844116210938,
        254.13700866699227,
        -337.19546508789057,
        1.0
      ],
      "name": "Sketchfab_model"
    },
    {
      "children": [
        2,
        3,
        4
      ],
      "name": "tinker.obj.cleaner.materialmerger.gles"
    },
    {
      "mesh": 0,
      "name": "Object_2"
    },
    {
      "mesh": 1,
      "name": "Object_3"
    },
    {
      "mesh": 2,
      "name": "Object_4"
    }
  ],
  "scene": 0,
  "scenes": [
    {
      "name": "Sketchfab_Scene",
      "nodes": [
        0
      ]
    }
  ]
}
